<svg id="Capa_1" data-name="Capa 1" xmlns="http://www.w3.org/2000/svg" xmlns:xlink="http://www.w3.org/1999/xlink" viewBox="0 0 793.7 272.45"><defs><style>.cls-1{fill:#313130;}.cls-2{fill:none;}.cls-3{fill:#fff;}.cls-4{fill:#3c3c3b;}.cls-5{fill:#343434;}.cls-6{fill:url(#Degradado_sin_nombre_29);}.cls-7{fill:url(#Degradado_sin_nombre_25);}.cls-8{fill:url(#Degradado_sin_nombre_79);}.cls-9{fill:url(#Degradado_sin_nombre_65);}</style><linearGradient id="Degradado_sin_nombre_29" x1="413.08" y1="101.38" x2="550.73" y2="101.38" gradientUnits="userSpaceOnUse"><stop offset="0" stop-color="#ee7203"/><stop offset="0.59" stop-color="#ec6608"/></linearGradient><linearGradient id="Degradado_sin_nombre_25" x1="422.89" y1="101.38" x2="560.54" y2="101.38" gradientUnits="userSpaceOnUse"><stop offset="0" stop-color="#ee7203"/><stop offset="0.59" stop-color="#f59c00"/></linearGradient><linearGradient id="Degradado_sin_nombre_79" x1="497.63" y1="101.38" x2="635.28" y2="101.38" gradientUnits="userSpaceOnUse"><stop offset="0" stop-color="#005074"/><stop offset="0.81" stop-color="#007fb0"/><stop offset="1" stop-color="#008bbf"/></linearGradient><linearGradient id="Degradado_sin_nombre_65" x1="507.44" y1="101.38" x2="645.1" y2="101.38" gradientUnits="userSpaceOnUse"><stop offset="0" stop-color="#0070a3"/><stop offset="0.97" stop-color="#00a1df"/><stop offset="1" stop-color="#00a2e1"/></linearGradient></defs><title>logo trassa</title><path class="cls-1" d="M152.28,61.78h-36L70.07,175.34h-43L73.28,61.78h-35L52.18,27.61h114Z"/><path class="cls-1" d="M258,27.81q11.44,1,18.29,5.43a27.61,27.61,0,0,1,10,10.95,28.45,28.45,0,0,1,2.81,14.27,48.6,48.6,0,0,1-3.42,15.38,57.28,57.28,0,0,1-7.63,13.77,67.28,67.28,0,0,1-9.35,10,53.79,53.79,0,0,1-10.15,6.93q-5.24,2.72-10.05,4.73,9.24,3,11.46,12.86T257,145l-12.26,30.35H207.14a7.9,7.9,0,0,1-5.12-2.11c-1.68-1.41-2-3.51-.91-6.33l13.47-33.16c.94-2.42.8-4.49-.4-6.23a6,6,0,0,0-5.23-2.62h-8.64L180,175.34H135.59l59.3-147.73H258ZM239.1,70.62c.94-2.41.91-4.48-.1-6.23a5.23,5.23,0,0,0-4.92-2.61h-8L216.59,84.9h8.24a11.63,11.63,0,0,0,6.94-2.62,15.66,15.66,0,0,0,5.12-6.23Z"/><path class="cls-1" d="M722.49,25.2q13.26,0,22,2.41t13.77,6.63a22.13,22.13,0,0,1,6.94,9.85A28,28,0,0,1,766.5,56a30,30,0,0,1-2,10.86l-44,108.53H677.06l13.07-33.57h-18.3l-13.46,33.57H614l48.84-120.8a43,43,0,0,1,6.83-12.06,35.66,35.66,0,0,1,7.14-7.43,36.7,36.7,0,0,1,10.35-5.43A72.62,72.62,0,0,1,702,26.3,165.77,165.77,0,0,1,722.49,25.2Zm-4.63,45.42c1.07-2.41,1.14-4.48.2-6.23a5,5,0,0,0-4.82-2.61,11.92,11.92,0,0,0-7.14,2.61A15.73,15.73,0,0,0,701,70.62L688.51,101H706Z"/><path class="cls-1" d="M169.47,222.82h-7.59l-9.76,24H143l9.76-24h-7.38l2.93-7.21H172.4Z"/><path class="cls-1" d="M186.31,215.65a8.47,8.47,0,0,1,3.86,1.15,5.77,5.77,0,0,1,2.12,2.31,6,6,0,0,1,.59,3,10.23,10.23,0,0,1-.72,3.25,12.1,12.1,0,0,1-1.61,2.9,13.74,13.74,0,0,1-2,2.1,11.78,11.78,0,0,1-2.14,1.46c-.74.38-1.45.72-2.13,1a3.45,3.45,0,0,1,2.42,2.71,8.21,8.21,0,0,1-.64,4.84l-2.58,6.41h-7.93a1.69,1.69,0,0,1-1.09-.45,1.11,1.11,0,0,1-.19-1.34l2.84-7a1.36,1.36,0,0,0-.08-1.32,1.24,1.24,0,0,0-1.1-.55h-1.83l-4.28,10.65h-9.38L173,215.61h13.32Zm-4,9a1.48,1.48,0,0,0,0-1.32,1.12,1.12,0,0,0-1-.55h-1.7l-2,4.88h1.74a2.49,2.49,0,0,0,1.46-.55,3.23,3.23,0,0,0,1.08-1.32Z"/><path class="cls-1" d="M208.24,215.1a17.77,17.77,0,0,1,4.64.51,7.6,7.6,0,0,1,2.91,1.4,4.7,4.7,0,0,1,1.46,2.08,5.82,5.82,0,0,1,.27,2.5,6.37,6.37,0,0,1-.42,2.29l-9.29,22.91h-9.16l2.76-7.09h-3.86l-2.84,7.09h-9.38l10.31-25.5a8.94,8.94,0,0,1,1.44-2.54,7.25,7.25,0,0,1,1.51-1.57,8,8,0,0,1,2.18-1.15,15.62,15.62,0,0,1,3.14-.7A35.79,35.79,0,0,1,208.24,215.1Zm-1,9.59a1.44,1.44,0,0,0,0-1.32,1.07,1.07,0,0,0-1-.55,2.55,2.55,0,0,0-1.5.55,3.23,3.23,0,0,0-1.08,1.32l-2.63,6.4h3.69Z"/><path class="cls-1" d="M233.3,215.1a15,15,0,0,1,5.26.82,7.78,7.78,0,0,1,3.42,2.32,6.38,6.38,0,0,1,1.36,3.63,10.93,10.93,0,0,1-.92,4.77h-7.55a2.48,2.48,0,0,1-1.33-.34c-.36-.23-.46-.64-.32-1.23,0-.11.06-.21.08-.3a2.82,2.82,0,0,0,.09-.3.65.65,0,0,0,.13-.38,4.08,4.08,0,0,0,.17-1.54c-.06-.41-.37-.62-.94-.62a2.26,2.26,0,0,0-1.69.64,6.18,6.18,0,0,0-1.23,2.12,1.52,1.52,0,0,0,.33,1.66A13.53,13.53,0,0,0,232,228c.76.59,1.57,1.22,2.44,1.92a10.16,10.16,0,0,1,2.2,2.46,7.58,7.58,0,0,1,1.13,3.29A9.12,9.12,0,0,1,237,240a14.07,14.07,0,0,1-1.86,3.42,8.58,8.58,0,0,1-2.57,2.23,11,11,0,0,1-3.5,1.21,26.63,26.63,0,0,1-4.67.36,15.56,15.56,0,0,1-5.26-.8,7.64,7.64,0,0,1-3.41-2.32,6.35,6.35,0,0,1-1.36-3.64,11.19,11.19,0,0,1,.91-4.82h7.51a2.16,2.16,0,0,1,1.49.49c.36.33.36.9,0,1.72a.85.85,0,0,0-.11.3,1.83,1.83,0,0,0,0,.21,3.53,3.53,0,0,0-.11,1.44c.08.4.38.59.92.59a2.29,2.29,0,0,0,1.69-.63,6.24,6.24,0,0,0,1.23-2.13,1.48,1.48,0,0,0-.34-1.63,12.23,12.23,0,0,0-1.82-1.65c-.76-.58-1.58-1.22-2.44-1.93A11,11,0,0,1,221,230a7.57,7.57,0,0,1-1.12-3.29,9.14,9.14,0,0,1,.81-4.39,14,14,0,0,1,1.86-3.41,8.46,8.46,0,0,1,2.57-2.23,11.2,11.2,0,0,1,3.5-1.21A26.51,26.51,0,0,1,233.3,215.1Z"/><path class="cls-1" d="M257.73,239.57l-2.92,7.22H236.4l12.68-31.18h9.08l-9.71,24Z"/><path class="cls-1" d="M280.09,215.1a17.72,17.72,0,0,1,4.64.51,7.6,7.6,0,0,1,2.91,1.4,4.62,4.62,0,0,1,1.46,2.08,6,6,0,0,1,.28,2.5,6.17,6.17,0,0,1-.43,2.29l-9.28,22.91H270.5l2.76-7.09H269.4l-2.84,7.09h-9.38l10.31-25.5a9.44,9.44,0,0,1,1.44-2.54,7.5,7.5,0,0,1,1.51-1.57,8.11,8.11,0,0,1,2.18-1.15,15.78,15.78,0,0,1,3.14-.7A35.91,35.91,0,0,1,280.09,215.1Zm-1,9.59a1.47,1.47,0,0,0,.05-1.32,1.08,1.08,0,0,0-1-.55,2.58,2.58,0,0,0-1.51.55,3.4,3.4,0,0,0-1.08,1.32l-2.63,6.4h3.69Z"/><path class="cls-1" d="M305.45,215.61a12,12,0,0,1,4.73.83,6.31,6.31,0,0,1,2.93,2.39,6.93,6.93,0,0,1,.95,3.9,15.89,15.89,0,0,1-1.18,5.31c-.74,2-1.45,3.75-2.15,5.41s-1.38,3.28-2.05,4.9a24.7,24.7,0,0,1-2.3,4.47,9.17,9.17,0,0,1-2.5,2.57,7.53,7.53,0,0,1-3,1.14,25.57,25.57,0,0,1-3.86.26H282.63l12.43-31.18Zm-1.06,9.08a1.48,1.48,0,0,0,0-1.32,1.12,1.12,0,0,0-1-.55h-1.7l-7,17.6h1.7a2.55,2.55,0,0,0,1.48-.53,2.68,2.68,0,0,0,1.06-1.33Z"/><path class="cls-1" d="M331.28,215.1a12.26,12.26,0,0,1,4.84.85,6.35,6.35,0,0,1,3,2.5,7.49,7.49,0,0,1,1,4.05,15.8,15.8,0,0,1-1.21,5.45c-.74,2-1.46,3.83-2.19,5.54s-1.43,3.38-2.14,5a26.49,26.49,0,0,1-2.35,4.62,9.41,9.41,0,0,1-2.55,2.65A7.85,7.85,0,0,1,326.6,247a25.89,25.89,0,0,1-4,.27h-4.28a11.11,11.11,0,0,1-3.48-.53,5.44,5.44,0,0,1-2.67-1.8,5.85,5.85,0,0,1-1.15-3.37,12.88,12.88,0,0,1,1.1-5.24l1.62-4,1.57-3.9c.56-1.42,1.13-2.82,1.69-4.2a17.51,17.51,0,0,1,2-3.71,13.46,13.46,0,0,1,2.76-2.87,12.44,12.44,0,0,1,7.64-2.5Zm-1.23,9.59a1.37,1.37,0,0,0,0-1.32,1.15,1.15,0,0,0-1.08-.55,2.37,2.37,0,0,0-1.52.4,3.7,3.7,0,0,0-.89,1.51l-5.31,13.15c-.42,1.07-.54,1.77-.36,2.08a1.16,1.16,0,0,0,1.08.46,2.66,2.66,0,0,0,1.53-.4,3.09,3.09,0,0,0,1-1.46Z"/><path class="cls-1" d="M356.31,215.1a15.06,15.06,0,0,1,5.26.82,7.69,7.69,0,0,1,3.41,2.32,6.31,6.31,0,0,1,1.36,3.63,10.91,10.91,0,0,1-.91,4.77h-7.55a2.49,2.49,0,0,1-1.34-.34c-.35-.23-.46-.64-.32-1.23q0-.16.09-.3a3.09,3.09,0,0,0,.08-.3.58.58,0,0,0,.13-.38,3.88,3.88,0,0,0,.17-1.54c-.06-.41-.37-.62-.93-.62a2.27,2.27,0,0,0-1.7.64,6.52,6.52,0,0,0-1.23,2.12,1.53,1.53,0,0,0,.34,1.66A12.8,12.8,0,0,0,355,228c.77.59,1.58,1.22,2.44,1.92a10,10,0,0,1,2.21,2.46,7.57,7.57,0,0,1,1.12,3.29A9.22,9.22,0,0,1,360,240a14.08,14.08,0,0,1-1.87,3.42,8.46,8.46,0,0,1-2.57,2.23,11,11,0,0,1-3.5,1.21,26.51,26.51,0,0,1-4.66.36,15.52,15.52,0,0,1-5.26-.8,7.62,7.62,0,0,1-3.42-2.32,6.41,6.41,0,0,1-1.35-3.64,11,11,0,0,1,.91-4.82h7.51a2.13,2.13,0,0,1,1.48.49c.37.33.37.9,0,1.72a1.11,1.11,0,0,0-.11.3,1.62,1.62,0,0,0,0,.21,3.37,3.37,0,0,0-.11,1.44c.07.4.37.59.91.59a2.32,2.32,0,0,0,1.7-.63,6.58,6.58,0,0,0,1.23-2.13,1.52,1.52,0,0,0-.34-1.63,12.36,12.36,0,0,0-1.83-1.65c-.76-.58-1.57-1.22-2.43-1.93A10.77,10.77,0,0,1,344,230a7.44,7.44,0,0,1-1.12-3.29,9,9,0,0,1,.8-4.39,14,14,0,0,1,1.87-3.41,8.42,8.42,0,0,1,2.56-2.23,11.29,11.29,0,0,1,3.5-1.21A26.63,26.63,0,0,1,356.31,215.1Z"/><path class="cls-1" d="M396.73,215.61a12.06,12.06,0,0,1,4.73.83,6.36,6.36,0,0,1,2.93,2.39,6.93,6.93,0,0,1,.95,3.9,15.93,15.93,0,0,1-1.19,5.31c-.73,2-1.45,3.75-2.14,5.41l-2.06,4.9a24.11,24.11,0,0,1-2.29,4.47,9.31,9.31,0,0,1-2.5,2.57,7.59,7.59,0,0,1-3,1.14,25.57,25.57,0,0,1-3.86.26H373.91l12.43-31.18Zm-1.06,9.08a1.48,1.48,0,0,0,0-1.32,1.13,1.13,0,0,0-1-.55h-1.7l-7,17.6h1.7a2.55,2.55,0,0,0,1.48-.53,2.74,2.74,0,0,0,1.06-1.33Z"/><path class="cls-1" d="M434.82,215.61l-3.14,7.72H417.94l-1.7,3.94h11.07l-3,7.47h-11l-1.65,3.94H425.4l-3.26,8.11H399.23l12.68-31.18Z"/><path class="cls-1" d="M469.43,217.73c1.5,1.75,1.88,4.26,1.14,7.51a1.6,1.6,0,0,1-.06.32,1.86,1.86,0,0,1-.11.32,2.16,2.16,0,0,1-1.22,1.39,4.86,4.86,0,0,1-2,.39h-7.55l1.19-3a1.4,1.4,0,0,0,0-1.32,1.15,1.15,0,0,0-1.08-.55,2.38,2.38,0,0,0-1.53.4,3.94,3.94,0,0,0-.89,1.51l-5.3,13.15c-.42,1.07-.54,1.77-.36,2.08a1.14,1.14,0,0,0,1.08.46,2.68,2.68,0,0,0,1.53-.4,3.23,3.23,0,0,0,1-1.46l1.23-3.06h7.76a2.47,2.47,0,0,1,1.48.38c.34.26.38.71.13,1.36-.08.23-.18.44-.27.64a5.36,5.36,0,0,0-.28.64,26.44,26.44,0,0,1-2.36,4.62,9.25,9.25,0,0,1-2.54,2.65,7.85,7.85,0,0,1-3.09,1.19,25.89,25.89,0,0,1-4,.27h-4.29a11.1,11.1,0,0,1-3.47-.53,5.43,5.43,0,0,1-2.68-1.8,5.85,5.85,0,0,1-1.14-3.37,12.88,12.88,0,0,1,1.1-5.24l1.61-4c.49-1.19,1-2.49,1.57-3.9s1.13-2.82,1.7-4.2a17.51,17.51,0,0,1,2-3.71,13.22,13.22,0,0,1,2.76-2.87,12.44,12.44,0,0,1,7.63-2.5h1.87Q467.18,215.1,469.43,217.73Z"/><path class="cls-1" d="M487.58,215.1a17.8,17.8,0,0,1,4.65.51,7.48,7.48,0,0,1,2.9,1.4,4.64,4.64,0,0,1,1.47,2.08,5.82,5.82,0,0,1,.27,2.5,6.37,6.37,0,0,1-.42,2.29l-9.29,22.91H478l2.75-7.09h-3.86l-2.84,7.09h-9.37L475,221.29a8.94,8.94,0,0,1,1.44-2.54,7.21,7.21,0,0,1,1.5-1.57,8,8,0,0,1,2.19-1.15,15.46,15.46,0,0,1,3.14-.7A35.62,35.62,0,0,1,487.58,215.1Zm-1,9.59a1.47,1.47,0,0,0,0-1.32,1.08,1.08,0,0,0-1-.55,2.53,2.53,0,0,0-1.5.55,3.34,3.34,0,0,0-1.09,1.32l-2.62,6.4h3.69Z"/><path class="cls-1" d="M511.25,239.57l-2.93,7.22h-18.4l12.68-31.18h9.07l-9.71,24Z"/><path class="cls-1" d="M520,246.79h-9.08l12.68-31.18h9.08Z"/><path class="cls-1" d="M545.35,215.61a12,12,0,0,1,4.73.83,6.31,6.31,0,0,1,2.93,2.39,6.93,6.93,0,0,1,1,3.9,15.68,15.68,0,0,1-1.19,5.31q-1.1,2.93-2.14,5.41c-.69,1.65-1.38,3.28-2,4.9a24.7,24.7,0,0,1-2.3,4.47,9.17,9.17,0,0,1-2.5,2.57,7.53,7.53,0,0,1-3,1.14,25.57,25.57,0,0,1-3.86.26H522.53L535,215.61Zm-1.06,9.08a1.48,1.48,0,0,0,0-1.32,1.12,1.12,0,0,0-1-.55h-1.7l-7,17.6h1.7a2.55,2.55,0,0,0,1.48-.53,2.68,2.68,0,0,0,1.06-1.33Z"/><path class="cls-1" d="M570.76,215.1a17.72,17.72,0,0,1,4.64.51,7.6,7.6,0,0,1,2.91,1.4,4.62,4.62,0,0,1,1.46,2.08,6,6,0,0,1,.28,2.5,6.17,6.17,0,0,1-.43,2.29l-9.28,22.91h-9.17l2.76-7.09h-3.86l-2.84,7.09h-9.38l10.31-25.5a9.44,9.44,0,0,1,1.44-2.54,7.5,7.5,0,0,1,1.51-1.57,8.11,8.11,0,0,1,2.18-1.15,15.78,15.78,0,0,1,3.14-.7A35.91,35.91,0,0,1,570.76,215.1Zm-1,9.59a1.47,1.47,0,0,0,.05-1.32,1.08,1.08,0,0,0-1-.55,2.58,2.58,0,0,0-1.51.55,3.4,3.4,0,0,0-1.08,1.32l-2.63,6.4h3.69Z"/><path class="cls-1" d="M596.12,215.61a12,12,0,0,1,4.73.83,6.31,6.31,0,0,1,2.93,2.39,6.93,6.93,0,0,1,1,3.9,15.89,15.89,0,0,1-1.18,5.31c-.74,2-1.45,3.75-2.15,5.41s-1.38,3.28-2,4.9a25.41,25.41,0,0,1-2.29,4.47,9.34,9.34,0,0,1-2.51,2.57,7.53,7.53,0,0,1-3,1.14,25.57,25.57,0,0,1-3.86.26H573.3l12.43-31.18Zm-1.06,9.08a1.48,1.48,0,0,0,0-1.32,1.12,1.12,0,0,0-1-.55h-1.7l-7,17.6H587a2.55,2.55,0,0,0,1.48-.53,2.68,2.68,0,0,0,1.06-1.33Z"/><path class="cls-2" d="M378.59,61.78a10.05,10.05,0,0,0-1.22.11l4.46.79A5.68,5.68,0,0,0,378.59,61.78Z"/><path class="cls-1" d="M430.55,44.09a22.13,22.13,0,0,0-6.94-9.85q-5-4.22-13.77-6.63t-22-2.41a165.48,165.48,0,0,0-20.5,1.1,72.58,72.58,0,0,0-14.88,3.32,36.84,36.84,0,0,0-10.35,5.43A35.36,35.36,0,0,0,335,42.48a43,43,0,0,0-6.84,12.06L279.3,175.34h44.42l13.46-33.57h18.3l-13.07,33.57h43.42L419.21,93l9-22.13,1.67-4.1a30.21,30.21,0,0,0,2-10.86A28,28,0,0,0,430.55,44.09ZM383.21,70.62,372.14,99l-.78,2H353.87l.74-1.82,11.72-28.54a14.85,14.85,0,0,1,2.89-4.12,16.74,16.74,0,0,1,2.24-2.11,12.45,12.45,0,0,1,5.91-2.5,10.05,10.05,0,0,1,1.22-.11,5.68,5.68,0,0,1,3.24.9,4.74,4.74,0,0,1,1.58,1.71C384.35,66.14,384.28,68.21,383.21,70.62Z"/><rect class="cls-3" x="576.27" y="95.78" width="166.3" height="0.62"/><rect class="cls-3" x="576.27" y="115.49" width="15.15" height="0.62"/><rect class="cls-3" x="401.32" y="95.78" width="75.24" height="0.62"/><rect class="cls-3" x="401.32" y="115.49" width="6.86" height="0.62"/><rect class="cls-3" x="553.35" y="115.49" width="188.14" height="0.62"/><path class="cls-4" d="M492.45,95.12H59.71l-8.29,20.37H488.54Z"/><polygon class="cls-3" points="59.44 95.78 59.19 96.4 492.2 96.4 492.32 95.78 59.44 95.78"/><polygon class="cls-3" points="51.42 115.49 51.16 116.11 488.43 116.11 488.55 115.49 51.42 115.49"/><path class="cls-5" d="M753,95.12H598l-4,21.65H744.23Z"/><rect class="cls-3" x="596.25" y="105.53" width="7.26" height="0.83"/><rect class="cls-3" x="612.68" y="105.53" width="7.26" height="0.83"/><rect class="cls-3" x="629.57" y="105.53" width="7.26" height="0.83"/><rect class="cls-3" x="646" y="105.53" width="7.26" height="0.83"/><rect class="cls-3" x="662.43" y="105.53" width="7.26" height="0.83"/><rect class="cls-3" x="676.39" y="105.53" width="7.26" height="0.83"/><rect class="cls-3" x="692.82" y="105.53" width="7.26" height="0.83"/><rect class="cls-3" x="709.25" y="105.53" width="7.26" height="0.83"/><polygon class="cls-3" points="726.14 105.53 726.14 106.36 728.61 106.36 733.4 106.36 733.4 105.53 728.61 105.53 726.14 105.53"/><polygon class="cls-3" points="742.57 105.53 742.57 106.36 748.45 106.36 748.79 105.53 742.57 105.53"/><polygon class="cls-3" points="597.91 95.78 597.79 96.4 742.57 96.4 752.49 96.4 752.74 95.78 597.91 95.78"/><polygon class="cls-3" points="594.22 115.49 594.1 116.11 744.5 116.11 744.75 115.49 594.22 115.49"/><polygon class="cls-3" points="55.13 106.36 57.42 106.36 57.42 105.53 55.47 105.53 55.13 106.36"/><rect class="cls-3" x="66.59" y="105.53" width="7.26" height="0.83"/><rect class="cls-3" x="83.02" y="105.53" width="7.26" height="0.83"/><rect class="cls-3" x="96.98" y="105.53" width="7.26" height="0.83"/><rect class="cls-3" x="113.41" y="105.53" width="7.26" height="0.83"/><rect class="cls-3" x="129.84" y="105.53" width="7.26" height="0.83"/><rect class="cls-3" x="146.73" y="105.53" width="7.26" height="0.83"/><rect class="cls-3" x="163.16" y="105.53" width="7.26" height="0.83"/><rect class="cls-3" x="179.59" y="105.53" width="7.26" height="0.83"/><rect class="cls-3" x="193.55" y="105.53" width="7.26" height="0.83"/><rect class="cls-3" x="209.98" y="105.53" width="7.26" height="0.83"/><rect class="cls-3" x="226.41" y="105.53" width="7.26" height="0.83"/><rect class="cls-3" x="242.84" y="105.53" width="7.72" height="0.83"/><rect class="cls-3" x="259.72" y="105.53" width="7.26" height="0.83"/><rect class="cls-3" x="276.15" y="105.53" width="7.26" height="0.83"/><rect class="cls-3" x="290.12" y="105.53" width="7.26" height="0.83"/><rect class="cls-3" x="306.55" y="105.53" width="7.26" height="0.83"/><rect class="cls-3" x="322.97" y="105.53" width="7.26" height="0.83"/><rect class="cls-3" x="339.86" y="105.53" width="7.26" height="0.83"/><rect class="cls-3" x="356.29" y="105.53" width="7.26" height="0.83"/><rect class="cls-3" x="372.72" y="105.53" width="7.26" height="0.83"/><rect class="cls-3" x="386.69" y="105.53" width="7.26" height="0.83"/><rect class="cls-3" x="403.11" y="105.53" width="7.26" height="0.83"/><rect class="cls-3" x="419.54" y="105.53" width="7.26" height="0.83"/><rect class="cls-3" x="436.43" y="105.53" width="7.26" height="0.83"/><rect class="cls-3" x="452.86" y="105.53" width="7.26" height="0.83"/><rect class="cls-3" x="469.29" y="105.53" width="7.26" height="0.83"/><polygon class="cls-3" points="490.45 105.53 483.25 105.53 483.25 106.36 490.29 106.36 490.52 106.36 490.52 105.53 490.45 105.53"/><polygon class="cls-4" points="51.16 116.11 50.9 116.77 488.3 116.77 488.43 116.11 51.16 116.11"/><path class="cls-6" d="M503.11,25.2q14.48,0,24.92,3.89t16.18,11a29.91,29.91,0,0,1,6.43,17.21q.71,10.13-4.31,22.58H510.55a11.53,11.53,0,0,1-6.33-1.61q-2.52-1.61-1.51-5.83c.13-.53.26-1,.4-1.4s.27-.87.4-1.41a3,3,0,0,0,.61-1.81,19,19,0,0,0,.8-7.34q-.41-2.91-4.42-2.91a10.87,10.87,0,0,0-8,3q-3,3-5.83,10.06a7.23,7.23,0,0,0,1.61,7.86,60.17,60.17,0,0,0,8.64,7.75q5.43,4.13,11.56,9.06A48.45,48.45,0,0,1,518.89,107a36.15,36.15,0,0,1,5.33,15.6q1,8.85-3.82,20.74a67.21,67.21,0,0,1-8.85,16.21,40,40,0,0,1-12.16,10.57,52.57,52.57,0,0,1-16.58,5.73,125.58,125.58,0,0,1-22.11,1.71q-14.47,0-24.92-3.81t-16.18-11a30.21,30.21,0,0,1-6.44-17.28q-.69-10.16,4.33-22.82h35.57a10.31,10.31,0,0,1,7,2.31q2.61,2.31,0,8.14a4.91,4.91,0,0,0-.5,1.41,6,6,0,0,0-.1,1,16.54,16.54,0,0,0-.51,6.83c.33,1.88,1.77,2.81,4.32,2.81a10.86,10.86,0,0,0,8-3q3-3,5.83-10.05,1.6-4-1.61-7.74a56.87,56.87,0,0,0-8.64-7.84q-5.43-4.11-11.56-9.14a50.9,50.9,0,0,1-10.45-11.66,35.43,35.43,0,0,1-5.33-15.58q-1-8.94,3.83-20.8a66.62,66.62,0,0,1,8.84-16.18,40,40,0,0,1,12.16-10.56A52.81,52.81,0,0,1,481,26.91,125.58,125.58,0,0,1,503.11,25.2Z"/><path class="cls-7" d="M512.92,25.2q14.48,0,24.93,3.89t16.18,11a30,30,0,0,1,6.43,17.21q.7,10.13-4.32,22.58H520.36A11.53,11.53,0,0,1,514,78.26q-2.52-1.61-1.51-5.83c.14-.53.27-1,.4-1.4s.27-.87.41-1.41a2.94,2.94,0,0,0,.6-1.81,19,19,0,0,0,.8-7.34q-.4-2.91-4.42-2.91a10.87,10.87,0,0,0-8,3q-3,3-5.83,10.06a7.23,7.23,0,0,0,1.61,7.86,60.17,60.17,0,0,0,8.64,7.75q5.43,4.13,11.56,9.06A48.24,48.24,0,0,1,528.7,107a36,36,0,0,1,5.33,15.6q1,8.85-3.82,20.74a67.54,67.54,0,0,1-8.84,16.21,40.12,40.12,0,0,1-12.16,10.57,52.72,52.72,0,0,1-16.59,5.73,125.5,125.5,0,0,1-22.11,1.71q-14.47,0-24.92-3.81t-16.18-11A30.2,30.2,0,0,1,423,145.5q-.71-10.16,4.32-22.82h35.58a10.28,10.28,0,0,1,7,2.31q2.61,2.31,0,8.14a5.24,5.24,0,0,0-.5,1.41,6,6,0,0,0-.1,1,16.51,16.51,0,0,0-.5,6.83c.33,1.88,1.77,2.81,4.32,2.81a10.88,10.88,0,0,0,8-3q3-3,5.83-10.05,1.61-4-1.61-7.74a57.85,57.85,0,0,0-8.64-7.84q-5.43-4.11-11.56-9.14a50.67,50.67,0,0,1-10.45-11.66,35.18,35.18,0,0,1-5.33-15.58q-1-8.94,3.82-20.8a66.62,66.62,0,0,1,8.84-16.18,40.09,40.09,0,0,1,12.16-10.56,52.9,52.9,0,0,1,16.58-5.72A125.58,125.58,0,0,1,512.92,25.2Z"/><path class="cls-8" d="M587.66,25.2q14.48,0,24.92,3.89t16.18,11a29.92,29.92,0,0,1,6.44,17.21q.7,10.13-4.32,22.58H595.1a11.53,11.53,0,0,1-6.33-1.61q-2.52-1.61-1.51-5.83c.13-.53.27-1,.4-1.4s.27-.87.41-1.41a2.94,2.94,0,0,0,.6-1.81,19,19,0,0,0,.8-7.34q-.4-2.91-4.42-2.91a10.87,10.87,0,0,0-8,3q-3,3-5.83,10.06a7.23,7.23,0,0,0,1.61,7.86,60.17,60.17,0,0,0,8.64,7.75q5.43,4.13,11.56,9.06A48.24,48.24,0,0,1,603.44,107a36.15,36.15,0,0,1,5.33,15.6q1,8.85-3.82,20.74a67.54,67.54,0,0,1-8.84,16.21A40.24,40.24,0,0,1,584,170.11a52.72,52.72,0,0,1-16.59,5.73,125.58,125.58,0,0,1-22.11,1.71q-14.47,0-24.92-3.81t-16.18-11a30.2,30.2,0,0,1-6.43-17.28Q497,135.34,502,122.68h35.58a10.3,10.3,0,0,1,7,2.31q2.61,2.31,0,8.14a4.91,4.91,0,0,0-.5,1.41,6,6,0,0,0-.1,1,16.35,16.35,0,0,0-.5,6.83c.33,1.88,1.77,2.81,4.31,2.81a10.85,10.85,0,0,0,8-3q3-3,5.83-10.05,1.62-4-1.6-7.74a57.48,57.48,0,0,0-8.65-7.84q-5.43-4.11-11.55-9.14a50.94,50.94,0,0,1-10.46-11.66,35.3,35.3,0,0,1-5.32-15.58q-1-8.94,3.82-20.8a66.62,66.62,0,0,1,8.84-16.18A40,40,0,0,1,549,32.63a52.81,52.81,0,0,1,16.58-5.72A125.58,125.58,0,0,1,587.66,25.2Z"/><path class="cls-9" d="M597.48,25.2q14.46,0,24.92,3.89t16.18,11A30,30,0,0,1,645,57.29q.71,10.13-4.32,22.58H604.91a11.55,11.55,0,0,1-6.33-1.61q-2.52-1.61-1.5-5.83c.13-.53.26-1,.4-1.4s.26-.87.4-1.41a2.94,2.94,0,0,0,.6-1.81,19,19,0,0,0,.81-7.34c-.28-1.94-1.75-2.91-4.43-2.91a10.87,10.87,0,0,0-8,3q-3,3-5.83,10.06a7.25,7.25,0,0,0,1.61,7.86,60.31,60.31,0,0,0,8.65,7.75q5.41,4.13,11.55,9.06A48.49,48.49,0,0,1,613.26,107a36.14,36.14,0,0,1,5.32,15.6q1,8.85-3.82,20.74a67.2,67.2,0,0,1-8.84,16.21,40.12,40.12,0,0,1-12.16,10.57,52.72,52.72,0,0,1-16.59,5.73,125.5,125.5,0,0,1-22.11,1.71q-14.46,0-24.92-3.81t-16.18-11a30.2,30.2,0,0,1-6.43-17.28q-.7-10.16,4.32-22.82h35.58a10.28,10.28,0,0,1,7,2.31q2.61,2.31,0,8.14a5.24,5.24,0,0,0-.5,1.41,6,6,0,0,0-.1,1,16.51,16.51,0,0,0-.5,6.83c.33,1.88,1.77,2.81,4.32,2.81a10.88,10.88,0,0,0,8-3q3-3,5.83-10.05,1.61-4-1.61-7.74a57.85,57.85,0,0,0-8.64-7.84q-5.43-4.11-11.56-9.14a50.67,50.67,0,0,1-10.45-11.66A35.31,35.31,0,0,1,534,80.17q-1-8.94,3.82-20.8a66.62,66.62,0,0,1,8.84-16.18,40.09,40.09,0,0,1,12.16-10.56,52.9,52.9,0,0,1,16.58-5.72A125.62,125.62,0,0,1,597.48,25.2Z"/></svg>